<svg width="128" height="24" fill="none" xmlns="http://www.w3.org/2000/svg"><g clip-path="url(#clip0)" fill="#111"><path d="M1.624 22.051A9.498 9.498 0 01.02 16.308V7.795a9.63 9.63 0 011.503-5.846C2.625.615 4.328 0 6.832 0s4.106.615 5.108 1.744a7.487 7.487 0 011.502 5.025v2.052H8.535V6.46a5.157 5.157 0 00-.3-2.05 1.463 1.463 0 00-.58-.63 1.415 1.415 0 00-.823-.191c-.701 0-1.202.205-1.402.718a6.774 6.774 0 00-.3 2.256v10.974a4.334 4.334 0 00.4 2.154c.2.513.701.718 1.402.718s1.102-.205 1.302-.718c.228-.693.33-1.423.3-2.154v-2.461h4.908v2.051a7.98 7.98 0 01-1.502 5.128c-1.002 1.231-2.704 1.847-5.108 1.847-2.404-.103-4.207-.718-5.208-2.052zM19.33.308h5.71l4.206 23.384h-4.607l-.802-4.923h-3.305l-.801 4.923h-4.708L19.33.308zm4.107 15.384l-1.202-9.128-1.202 9.128h2.404zM32.751 4.205h-3.405V.308h11.918v3.794H37.86v19.59h-5.108V4.205zM50.379.308h8.814v2.461h-5.71v7.692h4.608v2.36h-4.607v8.615h5.709v2.359h-8.914V.308h.1zM61.797.308H64l6.51 15.487V.308h2.604v23.384h-2.003l-6.61-16v16h-2.704V.308zM76.119.308h8.814v2.461h-5.71v7.692h4.608v2.36h-4.607v8.615h5.709v2.359h-8.814V.308zM87.537.308h4.607a7.873 7.873 0 015.108 1.436c1.102.923 1.602 2.564 1.602 4.717 0 2.975-.901 4.821-2.804 5.436l3.205 11.693H96.15l-3.005-10.975h-2.503V23.59h-3.205V.308h.1zm4.407 10.05a4.302 4.302 0 002.904-.82c.601-.512.902-1.538.902-3.077a6.772 6.772 0 00-.3-2.256 2.583 2.583 0 00-1.103-1.23 4.473 4.473 0 00-2.203-.411h-1.402v7.692h1.202v.103zM102.422 21.755a10.566 10.566 0 01-1.402-5.95V8.012c-.025-1.486.144-2.97.501-4.41a5.204 5.204 0 011.903-2.667 6.416 6.416 0 013.705-.923c2.104 0 3.606.513 4.507 1.641a7.99 7.99 0 011.403 5.128v.82h-3.005v-.717a15.502 15.502 0 00-.2-2.564 2.06 2.06 0 00-.802-1.334 3.04 3.04 0 00-1.903-.512 2.957 2.957 0 00-2.003.615 2.322 2.322 0 00-.801 1.64 19.584 19.584 0 00-.2 2.77v8.718a9.51 9.51 0 00.601 3.897c.4.821 1.202 1.129 2.403 1.129.475.06.956-.024 1.384-.243a2.445 2.445 0 001.02-.988 9.635 9.635 0 00.701-4.103v-1.64h-2.904v-2.36h5.809v11.59h-2.003l-.301-2.667a4.179 4.179 0 01-1.553 2.211 4.019 4.019 0 01-2.553.764 4.906 4.906 0 01-2.406-.47 5.032 5.032 0 01-1.901-1.581zM119.987 15.487L115.08.41h3.004l3.506 11.282L124.995.41H128l-4.908 15.077v8.205h-3.004v-8.205h-.101z"/></g><defs><clipPath id="clip0"><path fill="#fff" d="M0 0h128v24H0z"/></clipPath></defs></svg>